<svg xmlns="http://www.w3.org/2000/svg" xmlns:xlink="http://www.w3.org/1999/xlink" width="228.828" height="81.625" viewBox="0 0 228.828 81.625"><defs><filter id="a" x="0" y="0" width="228.828" height="81.625" filterUnits="userSpaceOnUse"><feOffset dx="5" dy="1" input="SourceAlpha"/><feGaussianBlur result="b"/><feFlood flood-color="#4074b5"/><feComposite operator="in" in2="b"/><feComposite in="SourceGraphic"/></filter></defs><g transform="matrix(1, 0, 0, 1, 0, 0)" filter="url(#a)"><path d="M-2.4,13.447q3.545-1.172,6.665-2.168T10.84,9.39Q14.3,8.5,17.461,7.969a29.9,29.9,0,0,1,4.98-.41,40.5,40.5,0,0,1,5.566.234,15.328,15.328,0,0,1,3.765,1.23,11.137,11.137,0,0,1,3.164,2.271,11.609,11.609,0,0,1,2.271,3.354,4.066,4.066,0,0,1,.352,1.67q0,3.281-3.589,8.086a74.041,74.041,0,0,1-7.207,8.379q-3.618,3.574-5.405,5.127L26.631,56.4l-7.676,5.537L5.508,23.525a3.006,3.006,0,0,0-.557.557q-.5.557-1.3,1.45t-1.011,1.1a4.666,4.666,0,0,1-.571-1.26q-.483-1.26-1.289-3.5T-1.04,16.89Q-2.051,14.15-2.4,13.447Zm18.955,8.145,2.4,8.643q1.816-1.846,4.512-5.039t2.7-4.629a.565.565,0,0,0-.469-.645,11.992,11.992,0,0,0-2.607-.293A10.715,10.715,0,0,0,16.553,21.592Zm43.008,6.68a9.474,9.474,0,0,1,3.384,3,13.1,13.1,0,0,1,1.9,4.248,19.809,19.809,0,0,1,.6,4.907,24.039,24.039,0,0,1-.337,4.072,21.556,21.556,0,0,1-.923,3.6,11.926,11.926,0,0,1-1.377,2.783,27.705,27.705,0,0,1-3.955,4.746,21.414,21.414,0,0,1-4.307,3.208A19.142,19.142,0,0,1,50.2,60.63a16.571,16.571,0,0,1-4.263.571,14.352,14.352,0,0,1-4.731-.776,12.809,12.809,0,0,1-3.823-2.036,14.3,14.3,0,0,1-4.072-5.845,20.821,20.821,0,0,1-1.465-7.778q0-7.061,4.072-11.4a26.381,26.381,0,0,1,7.207-5.61A16.6,16.6,0,0,1,55.137,26.44,20.575,20.575,0,0,1,59.561,28.271Zm-1.729,4.922a8.062,8.062,0,0,1-2.153,3.926,4.672,4.672,0,0,1-3.237,1.7,2.477,2.477,0,0,1-1.406-.41,2.989,2.989,0,0,1-.879-2.461,4.713,4.713,0,0,1,.894-2.666,5.89,5.89,0,0,1,2.827-2.08,9.829,9.829,0,0,0-3.735.732,10.488,10.488,0,0,0-3.091,1.89,9.548,9.548,0,0,0-2.065,2.607,6.123,6.123,0,0,0-.776,2.915,4.931,4.931,0,0,0,2.52,4.336,8.345,8.345,0,0,0,4.453,1.494,5.486,5.486,0,0,0,3.691-1.392,8.88,8.88,0,0,0,2.461-3.574,11.849,11.849,0,0,0,.85-4.321A9.785,9.785,0,0,0,57.832,33.193Zm2.754-22.148L75.469,4.8l2.168,33.838,12.246-6.709,12.715,1.9L86.016,46.553,101.631,58.33l.7,11.748L79.307,53.525l.732,14.385-13.945.264L63.457,17.285l-4.307.967Zm62.4,32.754,7.061,8.525a9.258,9.258,0,0,1-4.028,4.512,26.776,26.776,0,0,1-7.559,3.237,33.32,33.32,0,0,1-8.745,1.187,21.488,21.488,0,0,1-6.9-1.025,9.729,9.729,0,0,1-4.673-3.105A14.235,14.235,0,0,1,95.3,47.988a24.5,24.5,0,0,1,1.6-8.657,16.21,16.21,0,0,1,3.384-5.962A21.734,21.734,0,0,1,104.927,30a22.415,22.415,0,0,1,5.2-2.021,22.743,22.743,0,0,1,5.537-.674,21.06,21.06,0,0,1,7.075,1.187,17.4,17.4,0,0,1,5.874,3.442L112.529,51.123a9.5,9.5,0,0,0,4.058-.894,11.978,11.978,0,0,0,3.53-2.549A18.794,18.794,0,0,0,122.988,43.8Zm-8.115-6.826a6.38,6.38,0,0,0-2.93-.732,7.59,7.59,0,0,0-3.062.645,4.839,4.839,0,0,0-2.095,1.523,8.227,8.227,0,0,0-1.816,5.156,9.163,9.163,0,0,0,.205,1.963q.205.938.7,2.578ZM144.7,6.006l28.8,69.346-12.246,1.2-13.682-31.9-7.676-1.2L127.91,68.877l-15.146.732Zm-4.307,30.469,6.943.967-2.871-11.279ZM171.68,61.143l1.436,23.584-13.184.7L157.939,47.4v-.293q-.117-1.465-.117-2.168l-.527-10.371-4.336.938,1.436-7.178,14.883-6.24.381,5.391a16.2,16.2,0,0,1,7.061-1.67,18.237,18.237,0,0,1,8.818,2.461,9.474,9.474,0,0,1,3.384,3,13.1,13.1,0,0,1,1.9,4.248,19.809,19.809,0,0,1,.6,4.907,24.039,24.039,0,0,1-.337,4.072,21.556,21.556,0,0,1-.923,3.6,11.926,11.926,0,0,1-1.377,2.783,25.559,25.559,0,0,1-5.361,5.977,19.771,19.771,0,0,1-5.83,3.281A18.275,18.275,0,0,1,171.68,61.143ZM170.3,38.291a7.381,7.381,0,0,0,.747,3.208,5.344,5.344,0,0,0,1.655,2.183,8.345,8.345,0,0,0,4.453,1.494,5.486,5.486,0,0,0,3.691-1.392,8.88,8.88,0,0,0,2.461-3.574,11.849,11.849,0,0,0,.85-4.321,9.785,9.785,0,0,0-.352-2.7,8.062,8.062,0,0,1-2.153,3.926,4.672,4.672,0,0,1-3.237,1.7,2.477,2.477,0,0,1-1.406-.41,2.989,2.989,0,0,1-.879-2.461,4.713,4.713,0,0,1,.894-2.666,5.89,5.89,0,0,1,2.827-2.08,9.688,9.688,0,0,0-4.395,1.011,10.49,10.49,0,0,0-3.413,2.681A7.757,7.757,0,0,0,170.3,38.291ZM201.68,61.143l1.436,23.584-13.184.7L187.939,47.4v-.293q-.117-1.465-.117-2.168l-.527-10.371-4.336.938,1.436-7.178,14.883-6.24.381,5.391a16.2,16.2,0,0,1,7.061-1.67,18.237,18.237,0,0,1,8.818,2.461,9.474,9.474,0,0,1,3.384,3,13.1,13.1,0,0,1,1.9,4.248,19.809,19.809,0,0,1,.6,4.907,24.039,24.039,0,0,1-.337,4.072,21.556,21.556,0,0,1-.923,3.6,11.926,11.926,0,0,1-1.377,2.783,25.559,25.559,0,0,1-5.361,5.977,19.771,19.771,0,0,1-5.83,3.281A18.275,18.275,0,0,1,201.68,61.143ZM200.3,38.291a7.381,7.381,0,0,0,.747,3.208,5.344,5.344,0,0,0,1.655,2.183,8.345,8.345,0,0,0,4.453,1.494,5.486,5.486,0,0,0,3.691-1.392,8.88,8.88,0,0,0,2.461-3.574,11.849,11.849,0,0,0,.85-4.321,9.785,9.785,0,0,0-.352-2.7,8.062,8.062,0,0,1-2.153,3.926,4.672,4.672,0,0,1-3.237,1.7,2.477,2.477,0,0,1-1.406-.41,2.989,2.989,0,0,1-.879-2.461,4.713,4.713,0,0,1,.894-2.666,5.89,5.89,0,0,1,2.827-2.08,9.688,9.688,0,0,0-4.395,1.011,10.49,10.49,0,0,0-3.413,2.681A7.757,7.757,0,0,0,200.3,38.291Z" transform="translate(2.4 -4.8)" fill="#f2be22"/></g></svg>